<?xml version="1.0" encoding="UTF-8" standalone="no"?>
<!-- Created with Inkscape (http://www.inkscape.org/) -->

<svg
   width="144"
   height="36"
   viewBox="0 0 38.099998 9.525"
   version="1.1"
   id="svg5"
   inkscape:version="1.2.2 (732a01da63, 2022-12-09)"
   sodipodi:docname="header.svg"
   xmlns:inkscape="http://www.inkscape.org/namespaces/inkscape"
   xmlns:sodipodi="http://sodipodi.sourceforge.net/DTD/sodipodi-0.dtd"
   xmlns="http://www.w3.org/2000/svg"
   xmlns:svg="http://www.w3.org/2000/svg">
  <sodipodi:namedview
     id="namedview7"
     pagecolor="#ffffff"
     bordercolor="#000000"
     borderopacity="0.25"
     inkscape:showpageshadow="2"
     inkscape:pageopacity="0.0"
     inkscape:pagecheckerboard="0"
     inkscape:deskcolor="#d1d1d1"
     inkscape:document-units="px"
     showgrid="false"
     inkscape:zoom="10.35098"
     inkscape:cx="65.887483"
     inkscape:cy="26.664143"
     inkscape:window-width="2560"
     inkscape:window-height="1334"
     inkscape:window-x="-11"
     inkscape:window-y="-11"
     inkscape:window-maximized="1"
     inkscape:current-layer="layer1" />
  <defs
     id="defs2" />
  <g
     inkscape:label="Layer 1"
     inkscape:groupmode="layer"
     id="layer1"
     transform="translate(6.0028445e-5,6.5869375e-5)">
    <g
       id="g291"
       transform="matrix(0.14062515,0,0,0.14062515,-8.0585945e-5,-14.287586)">
      <path
         id="path4230"
         style="-inkscape-font-specification:'Segoe UI';fill:#606060"
         d="m 9.3430996,106.3625 v 58.20833 H 21.513933 v -3.93567 h -7.342188 v -50.33698 h 7.342188 v -3.93568 z m 20.4390624,0 v 58.20833 h 12.170833 v -3.93567 h -7.342188 v -50.33698 h 7.342188 v -3.93568 z m 199.231248,0 v 3.93568 h 7.30911 v 50.33698 h -7.30911 v 3.93567 h 12.13776 V 106.3625 Z m 20.43906,0 v 3.93568 h 7.30911 v 50.33698 h -7.30911 v 3.93567 h 12.13776 V 106.3625 Z" />
      <path
         id="path4234"
         style="-inkscape-font-specification:Futura;fill:#c04030"
         d="m 119.74049,109.98398 v 50.13854 h 10.45104 v -16.80104 h 0.1323 l 10.81484,16.80104 h 12.53464 l -12.99766,-17.95859 12.13776,-15.90807 h -12.40234 l -10.08724,15.64349 h -0.1323 v -31.91537 z m -13.95677,0.16537 c -1.76388,0 -3.20807,0.49609 -4.33255,1.48828 -1.12448,0.99218 -1.686716,2.27101 -1.686716,3.83646 0,1.52135 0.562236,2.8112 1.686716,3.86953 1.12448,1.03628 2.56867,1.55443 4.33255,1.55443 1.78593,0 3.23012,-0.50713 4.33255,-1.52136 1.12448,-1.01423 1.68672,-2.3151 1.68672,-3.9026 0,-1.56545 -0.56224,-2.84428 -1.68672,-3.83646 -1.10243,-0.99219 -2.54662,-1.48828 -4.33255,-1.48828 z m 64.88906,1.75286 c -2.71197,0 -5.01606,0.39687 -6.91224,1.19063 -1.87412,0.7717 -3.57187,1.89618 -5.09322,3.37343 v 5.82084 c 0.77169,-0.8599 1.59853,-1.64263 2.48046,-2.34818 0.904,-0.70555 1.83004,-1.31189 2.77813,-1.81901 0.97013,-0.50712 1.96232,-0.904 2.97656,-1.19062 1.01423,-0.28664 2.05052,-0.42995 3.10886,-0.42995 1.23471,0 2.38125,0.17639 3.43958,0.52916 1.05833,0.35278 1.97335,0.89297 2.74505,1.62058 0.79375,0.70555 1.41111,1.59852 1.85208,2.6789 0.46302,1.08038 0.69454,2.34818 0.69454,3.80339 0,1.30087 -0.15435,2.53559 -0.46302,3.70417 -0.28664,1.14652 -0.78273,2.28203 -1.48829,3.40651 -0.70555,1.12447 -1.64262,2.24896 -2.81119,3.37343 -1.14653,1.12448 -2.57969,2.30409 -4.29948,3.53881 -2.38125,1.74183 -4.3987,3.30728 -6.05235,4.69635 -1.63159,1.38906 -2.95451,2.77813 -3.96875,4.16719 -1.01423,1.38906 -1.74184,2.85529 -2.18281,4.39869 -0.44097,1.5434 -0.66146,3.32935 -0.66146,5.35782 v 2.34817 h 29.26953 v -4.86171 H 162.4707 c 0,-1.27882 0.16537,-2.4033 0.49609,-3.37344 0.35278,-0.99219 0.9481,-1.97335 1.78594,-2.94349 0.85989,-0.99219 2.00643,-2.05052 3.43959,-3.175 1.4552,-1.12447 3.29626,-2.48047 5.52317,-4.06797 1.78593,-1.27882 3.34037,-2.53559 4.66328,-3.77031 1.32292,-1.23473 2.41433,-2.52458 3.27422,-3.86953 0.88195,-1.34497 1.53239,-2.77813 1.9513,-4.29948 0.44098,-1.52135 0.66146,-3.2191 0.66146,-5.09323 0,-2.05052 -0.35278,-3.86954 -1.05833,-5.45703 -0.68351,-1.5875 -1.6316,-2.92144 -2.84427,-4.00183 -1.21267,-1.08038 -2.64584,-1.89618 -4.29948,-2.44739 -1.65365,-0.57327 -3.45061,-0.8599 -5.39089,-0.8599 z m 37.40547,0 c -2.20486,0 -4.24436,0.38585 -6.11849,1.15755 -1.85208,0.7717 -3.46163,1.86312 -4.82864,3.27422 -1.34497,1.38907 -2.4033,3.05374 -3.175,4.99401 -0.74966,1.94028 -1.12448,4.079 -1.12448,6.41615 0,2.18281 0.34175,4.17821 1.02526,5.9862 0.6835,1.80798 1.64262,3.37344 2.87734,4.69635 1.23473,1.30087 2.70096,2.3151 4.3987,3.04271 1.69774,0.70555 3.56085,1.05833 5.58932,1.05833 5.02708,0 8.55486,-2.0395 10.58334,-6.11849 h 0.13229 c 0,3.19705 -0.30868,6.0303 -0.92604,8.49974 -0.61736,2.46944 -1.51033,4.55304 -2.67891,6.25078 -1.16857,1.6757 -2.60174,2.95452 -4.29948,3.83646 -1.67569,0.88195 -3.5829,1.32292 -5.72161,1.32292 -2.97656,0 -5.77675,-0.73863 -8.40052,-2.21589 v 5.19245 c 2.38124,1.10243 5.13733,1.65365 8.26822,1.65365 3.04271,0 5.75469,-0.60634 8.13594,-1.81901 2.38125,-1.23473 4.3987,-3.02067 6.05235,-5.35782 1.65363,-2.35919 2.91041,-5.22552 3.77031,-8.59895 0.85989,-3.39548 1.28984,-7.26502 1.28984,-11.6086 0,-3.46162 -0.33073,-6.53741 -0.99219,-9.22734 -0.66145,-2.68993 -1.62057,-4.94992 -2.87734,-6.77995 -1.25676,-1.85208 -2.8112,-3.25217 -4.66328,-4.20026 -1.83003,-0.97014 -3.93568,-1.45521 -6.31693,-1.45521 z m -160.07291,0.79375 v 47.42656 h 10.087239 v -26.06145 c 0,-3.43958 -0.08819,-5.99722 -0.264583,-7.67292 h 0.132292 c 0.440971,0.88195 1.234724,2.19384 2.38125,3.93568 l 19.546093,29.79869 h 10.781771 v -47.42656 h -10.08724 v 26.22682 c 0,3.24115 0.08819,5.41294 0.264584,6.51537 h -0.132292 c -0.727603,-1.27882 -1.521355,-2.56867 -2.38125,-3.86953 L 59.514715,112.69596 Z m 159.60989,3.80339 c 1.36701,0 2.62379,0.29765 3.77031,0.89297 1.16858,0.57326 2.17179,1.40009 3.00964,2.48046 0.83785,1.05834 1.48828,2.33716 1.9513,3.83646 0.48507,1.49931 0.72761,3.16398 0.72761,4.99401 0,1.25677 -0.24254,2.43637 -0.72761,3.53881 -0.46302,1.08037 -1.11345,2.02847 -1.9513,2.84427 -0.8158,0.79374 -1.78594,1.43315 -2.91042,1.91823 -1.10243,0.46302 -2.28203,0.69453 -3.5388,0.69453 -1.43316,0 -2.74505,-0.24253 -3.93568,-0.72761 -1.16857,-0.48506 -2.17179,-1.1796 -3.00963,-2.08359 -0.83785,-0.92604 -1.48828,-2.05052 -1.9513,-3.37344 -0.44098,-1.32291 -0.66146,-2.82222 -0.66146,-4.49792 0,-1.52135 0.23151,-2.92144 0.69453,-4.20026 0.48507,-1.30086 1.1355,-2.41432 1.9513,-3.34036 0.83785,-0.94809 1.81901,-1.6757 2.94349,-2.18281 1.12448,-0.52917 2.33716,-0.79375 3.63802,-0.79375 z m -107.12317,9.75651 v 33.86666 h 10.45104 v -33.86666 z" />
    </g>
  </g>
</svg>
